<svg width="51" height="36" viewBox="0 0 51 36" fill="none" xmlns="http://www.w3.org/2000/svg">
<path d="M2.5 16.5V2H19L20 3V15C20 17 23.6667 17.8333 25.5 18H49V34C41.3333 34.3333 24.8 34.8 20 34C14 33 11 29.5 8 27.5C5.6 25.9 3.33333 19.5 2.5 16.5Z" fill="#F7F5E8"/>
<path fill-rule="evenodd" clip-rule="evenodd" d="M48 19H30V33H48V19ZM27 16V36H51V16H27Z" fill="#002160"/>
<path d="M25 19H33V33H25V26V19Z" fill="#F5F7E8"/>
<path fill-rule="evenodd" clip-rule="evenodd" d="M3 11.5C3 19.645 6.21112 24.8494 10.1443 28.1073C14.113 31.3945 18.8943 32.7573 22.0561 33H27.5V36H21.9452L21.8905 35.996C18.2185 35.7273 12.7813 34.1869 8.23066 30.4177C3.62221 26.6005 0 20.555 0 11.5V0.476036L3 0.475708V11.5Z" fill="#002160"/>
<path fill-rule="evenodd" clip-rule="evenodd" d="M18 11.5V1.5H21V11.5C21 14.988 22.9305 15.8718 23.6128 16H27V19H23.4066L23.3139 18.9884C21.2509 18.7305 18 16.6774 18 11.5Z" fill="#002160"/>
<path d="M0 0H21V3H0V0Z" fill="#002160"/>
</svg>
