<svg width="194" height="16" viewBox="0 0 194 16" fill="none" xmlns="http://www.w3.org/2000/svg">
<path d="M29.1543 8.55022C30 5 33.0996 2 36.7415 2C40.3834 2 42.8379 6.36681 43.6099 8.55022C44.1157 10.3668 46.1177 14 50.079 14C54.0404 14 55.8293 10.3668 56.2287 8.55022M56.3085 8.55022C57 5.5 60.2539 2 63.8958 2C67.5376 2 69.9922 6.36681 70.7642 8.55022C71.27 10.3668 73.272 14 77.2333 14C81.1946 14 82.9836 10.3668 83.3829 8.55022M83.4628 8.55022C84.5 4 87.4082 2 91.05 2C94.6919 2 97.1464 6.36681 97.9185 8.55022C98.4243 10.3668 100.426 14 104.388 14C108.349 14 110.138 10.3668 110.537 8.55022M110.617 8.55022C111.5 4.5 114.562 2 118.204 2C121.846 2 124.301 6.36681 125.073 8.55022C125.579 10.3668 127.58 14 131.542 14C135.503 14 137.292 10.3668 137.691 8.55022M137.771 8.55022C138.5 5.5 141.717 2 145.359 2C149 2 151.455 6.36681 152.227 8.55022C152.733 10.3668 154.735 14 158.696 14C162.657 14 164.446 10.3668 164.846 8.55022M2 8.55022C3.01163 6.36681 5.94536 2 9.58722 2C13.2291 2 15.6836 6.36681 16.4557 8.55022C16.9615 10.3668 18.9634 14 22.9248 14C26.8861 14 28.6751 10.3668 29.0744 8.55022M164.926 8.55022C166 4.5 168.871 2 172.513 2C176.155 2 178.609 6.36681 179.381 8.55022C179.887 10.3668 181.889 14 185.85 14C189.812 14 191.601 10.3668 192 8.55022" stroke="#002160" stroke-width="3"/>
</svg>
